<?xml version="1.0" standalone="no"?>
<!DOCTYPE svg PUBLIC "-//W3C//DTD SVG 20010904//EN"
 "http://www.w3.org/TR/2001/REC-SVG-20010904/DTD/svg10.dtd">
<svg version="1.0" xmlns="http://www.w3.org/2000/svg"
 width="1042.000000pt" height="1042.000000pt" viewBox="0 0 1042.000000 1042.000000"
 preserveAspectRatio="xMidYMid meet">
<metadata>
Created by potrace 1.11, written by Peter Selinger 2001-2013
</metadata>
<g transform="translate(0.000000,1042.000000) scale(0.100000,-0.100000)"
fill="#000000" stroke="none">
<path d="M2050 5950 l-465 -296 0 -2304 0 -2305 2980 -3 c1639 -2 3269 0 3623
4 l642 6 0 2302 0 2302 -447 284 c-247 156 -458 290 -469 297 l-22 14 0 -596
1 -596 -334 -212 c-184 -117 -464 -296 -624 -397 -159 -101 -344 -218 -410
-261 -186 -119 -776 -493 -812 -514 l-32 -18 -68 55 c-37 30 -140 115 -228
188 -88 72 -165 134 -172 137 -6 2 -114 -80 -239 -184 -125 -103 -234 -188
-243 -187 -18 0 -126 68 -1336 841 -71 45 -157 99 -190 120 -33 20 -96 60
-140 89 -44 28 -150 96 -235 149 -85 54 -190 121 -232 148 l-78 50 -2 592 -3
591 -465 -296z m6528 -1262 c9 -9 12 -314 12 -1310 l0 -1298 -25 -12 c-58 -26
-55 -109 -55 1317 0 1033 3 1304 13 1308 22 9 43 7 55 -5z"/>
</g>
</svg>
